<?xml version="1.0" encoding="UTF-8" standalone="no"?>
<!-- Created with Inkscape (http://www.inkscape.org/) -->

<svg
   width="29.235842mm"
   height="4.3798828mm"
   viewBox="0 0 29.235842 4.3798828"
   version="1.1"
   id="svg5"
   xmlns="http://www.w3.org/2000/svg"
   xmlns:svg="http://www.w3.org/2000/svg">
  <defs
     id="defs2" />
  <g
     id="layer1"
     transform="translate(-17.675432,-88.83287)">
    <g
       aria-label="Hello, World"
       id="text113"
       style="font-size:5px;stroke-width:0.264583">
      <path
         d="m 17.675432,88.986679 h 0.493164 v 1.494141 h 1.791992 v -1.494141 h 0.493165 v 3.64502 h -0.493165 v -1.73584 h -1.791992 v 1.73584 h -0.493164 z"
         id="path189" />
      <path
         d="m 23.754534,91.152206 v 0.219727 h -2.06543 q 0.0293,0.463867 0.27832,0.708008 0.251465,0.241699 0.698243,0.241699 0.258789,0 0.500488,-0.06348 0.24414,-0.06348 0.483398,-0.190429 v 0.424804 q -0.241699,0.10254 -0.495605,0.15625 -0.253906,0.05371 -0.515137,0.05371 -0.654297,0 -1.037598,-0.380859 -0.380859,-0.380859 -0.380859,-1.030273 0,-0.671387 0.361328,-1.064454 0.36377,-0.395507 0.979004,-0.395507 0.551758,0 0.871582,0.356445 0.322266,0.354004 0.322266,0.964355 z M 23.305315,91.02037 q -0.0049,-0.368652 -0.20752,-0.588378 -0.200195,-0.219727 -0.532226,-0.219727 -0.375977,0 -0.603027,0.212402 -0.22461,0.212403 -0.258789,0.598145 z"
         id="path191" />
      <path
         d="m 24.491838,88.83287 h 0.449219 v 3.798829 h -0.449219 z"
         id="path193" />
      <path
         d="m 25.880999,88.83287 h 0.449218 v 3.798829 h -0.449218 z"
         id="path195" />
      <path
         d="m 28.329729,90.212265 q -0.361328,0 -0.571289,0.283203 -0.209961,0.280762 -0.209961,0.771485 0,0.490722 0.20752,0.773925 0.209961,0.280762 0.57373,0.280762 0.358887,0 0.568848,-0.283203 0.209961,-0.283203 0.209961,-0.771484 0,-0.48584 -0.209961,-0.769043 -0.209961,-0.285645 -0.568848,-0.285645 z m 0,-0.380859 q 0.585938,0 0.92041,0.380859 0.334473,0.380859 0.334473,1.054688 0,0.671386 -0.334473,1.054687 -0.334472,0.380859 -0.92041,0.380859 -0.588379,0 -0.922851,-0.380859 -0.332032,-0.383301 -0.332032,-1.054687 0,-0.673829 0.332032,-1.054688 0.334472,-0.380859 0.922851,-0.380859 z"
         id="path197" />
      <path
         d="m 30.443987,92.011581 h 0.515137 v 0.419922 l -0.400391,0.78125 h -0.314941 l 0.200195,-0.78125 z"
         id="path199" />
      <path
         d="m 33.202776,88.986679 h 0.498047 l 0.766601,3.081055 0.764161,-3.081055 h 0.554199 l 0.766601,3.081055 0.76416,-3.081055 h 0.500489 l -0.915528,3.64502 h -0.620117 l -0.769043,-3.164063 -0.776367,3.164063 h -0.620117 z"
         id="path201" />
      <path
         d="m 39.218401,90.212265 q -0.361328,0 -0.571289,0.283203 -0.209961,0.280762 -0.209961,0.771485 0,0.490722 0.207519,0.773925 0.209961,0.280762 0.573731,0.280762 0.358887,0 0.568848,-0.283203 0.209961,-0.283203 0.209961,-0.771484 0,-0.48584 -0.209961,-0.769043 -0.209961,-0.285645 -0.568848,-0.285645 z m 0,-0.380859 q 0.585937,0 0.92041,0.380859 0.334473,0.380859 0.334473,1.054688 0,0.671386 -0.334473,1.054687 -0.334473,0.380859 -0.92041,0.380859 -0.588379,0 -0.922852,-0.380859 -0.332031,-0.383301 -0.332031,-1.054687 0,-0.673829 0.332031,-1.054688 0.334473,-0.380859 0.922852,-0.380859 z"
         id="path203" />
      <path
         d="m 42.802385,90.317245 q -0.07568,-0.04394 -0.166015,-0.06348 -0.08789,-0.02197 -0.195313,-0.02197 -0.380859,0 -0.585937,0.249024 -0.202637,0.246582 -0.202637,0.710449 v 1.44043 h -0.45166 v -2.734375 h 0.45166 v 0.424804 q 0.141602,-0.249023 0.368652,-0.368652 0.227051,-0.12207 0.551758,-0.12207 0.04639,0 0.102539,0.0073 0.05615,0.0049 0.124512,0.01709 z"
         id="path205" />
      <path
         d="m 43.273577,88.83287 h 0.449218 v 3.798829 h -0.449218 z"
         id="path207" />
      <path
         d="M 46.462053,90.312363 V 88.83287 h 0.449219 v 3.798829 h -0.449219 v -0.410157 q -0.141601,0.244141 -0.358886,0.36377 -0.214844,0.117187 -0.517579,0.117187 -0.495605,0 -0.808105,-0.395507 -0.310059,-0.395508 -0.310059,-1.040039 0,-0.644532 0.310059,-1.04004 0.3125,-0.395507 0.808105,-0.395507 0.302735,0 0.517579,0.119629 0.217285,0.117187 0.358886,0.361328 z m -1.530761,0.95459 q 0,0.495605 0.202636,0.778808 0.205078,0.280762 0.561524,0.280762 0.356445,0 0.561523,-0.280762 0.205078,-0.283203 0.205078,-0.778808 0,-0.495606 -0.205078,-0.776368 -0.205078,-0.283203 -0.561523,-0.283203 -0.356446,0 -0.561524,0.283203 -0.202636,0.280762 -0.202636,0.776368 z"
         id="path209" />
    </g>
  </g>
</svg>
