<?xml version="1.0" encoding="UTF-8" standalone="no"?>
<svg
   version="1.1"
   width="595.27557pt"
   height="841.88977pt"
   id="svg4"
   viewBox="0 0 595.27557 841.88977"
   sodipodi:docname="rugged_bird_ornament.cdr"
   xmlns:inkscape="http://www.inkscape.org/namespaces/inkscape"
   xmlns:sodipodi="http://sodipodi.sourceforge.net/DTD/sodipodi-0.dtd"
   xmlns="http://www.w3.org/2000/svg"
   xmlns:svg="http://www.w3.org/2000/svg">
  <defs
     id="defs8" />
  <sodipodi:namedview
     id="namedview6"
     pagecolor="#ffffff"
     bordercolor="#000000"
     borderopacity="0.25"
     inkscape:showpageshadow="2"
     inkscape:pageopacity="0.0"
     inkscape:pagecheckerboard="0"
     inkscape:deskcolor="#d1d1d1"
     inkscape:document-units="pt" />
  <path
     d="m 288.7688,753.6382 h 17.7378 c 6.8941,0 19.849,-2.6144 28.0989,-3.3047 11.441,-0.9572 18.7759,-1.9508 29.0892,-4.5521 10.1817,-2.5685 18.9003,-5.4003 28.1344,-8.388 18.8206,-6.0891 8.3154,-1.243 28.0987,-11.1033 23.781,-11.8531 29.7108,-13.1122 51.0477,-29.7496 8.4065,-6.5549 18.1871,-11.9121 24.4625,-18.9791 5.9975,-6.7541 11.9497,-11.5861 18.5397,-18.6367 2.6784,-2.8655 5.7038,-5.8297 9.7512,-9.8498 3.2374,-3.2159 14.3486,-19.2455 17.3809,-23.7359 2.639,-3.9079 6.5659,-9.7719 9.0776,-12.9005 5.5256,-6.8822 9.2554,-16.2382 13.2225,-24.7209 4.8337,-10.3349 7.6317,-16.2485 12.5204,-26.3773 1.7101,-3.5435 14.7812,-52.1024 14.7999,-55.0216 0.0287,-4.5053 1.1452,-9.1281 1.1274,-13.3721 -0.0165,-3.8857 0.968,-9.6681 1.1409,-14.0729 0.4558,-11.5977 2.3848,-19.5778 2.3848,-29.5007 0,-6.9633 -2.245,-18.2824 -3.0056,-25.9132 -2.4956,-25.0399 -2.2093,-27.8447 -10.6492,-53.0671 -2.9656,-8.8626 -4.9915,-15.3562 -8.0625,-25.1405 -2.971,-9.4669 -6.6728,-14.9247 -11.5008,-23.9582 -3.935,-7.3627 -8.2856,-15.4196 -12.6127,-23.1162 -5.2399,-9.32 -8.191,-13.7497 -14.925,-21.3948 L 517.445,255.9526 c -2.3644,-3.2306 -6.0854,-7.7096 -8.5728,-10.5593 l -21.4234,-17.8625 c -3.5802,-2.6924 -6.7147,-5.9655 -10.0729,-8.3619 -3.4892,-2.4897 -7.2593,-6.0458 -10.5509,-8.6389 -4.5368,-3.5742 -7.4707,-4.5289 -12.4279,-7.5286 -12.1042,-7.3244 -25.3423,-13.3361 -38.0134,-20.5588 -4.5068,-2.569 -7.4328,-2.9038 -12.1326,-4.4365 -8.9938,-2.933 -18.017,-5.847 -26.6219,-8.2627 -10.1075,-2.8375 -16.5441,-5.3464 -27.1865,-7.6969 -2.7385,-0.6049 -25.8202,-3.8716 -26.761,-3.4282 l -0.3286,-0.2347 c -0.0192,-0.1131 6.922,-7.9189 7.5615,-8.947 6.889,-11.0747 7.4993,-21.7806 4.1023,-33.8675 -4.4502,-15.8332 -21.0632,-27.4658 -38.4634,-27.1738 -17.1547,0.2877 -31.9671,11.0081 -37.4456,27.9496 -2.367,7.3199 -2.1578,14.7458 -0.5417,21.4433 2.7737,11.4936 7.0752,13.1978 11.0565,19.1412 -2.4046,1.1534 -24.5528,5.1647 -27.8169,5.9289 -8.2832,1.9389 -17.407,4.1913 -25.2658,6.3145 -9.5528,2.5809 -16.2181,3.831 -25.6102,8.4461 -8.1859,4.0224 -17.0393,6.6033 -26.2797,11.164 -9.3821,4.6309 -17.7982,9.7758 -25.2142,14.7563 -8.0251,5.3895 -16.8474,9.3622 -23.7602,15.9477 -6.2212,5.9264 -15.6107,12.7176 -20.8185,18.013 -3.5368,3.5964 -6.9565,5.7478 -10.713,9.5684 -2.5331,2.5761 -7.2473,8.3647 -8.7412,10.2861 -4.0762,5.2424 -15.7184,17.9569 -17.888,21.1028 -5.7104,8.2788 -9.2489,14.2509 -14.6682,23.0383 -14.4944,23.5034 -12.2743,19.6217 -23.0601,47.3048 -1.8613,4.7772 -3.3421,8.5453 -5.0936,12.6408 -3.4764,8.1298 -7.882,30.945 -9.6001,39.9005 -0.5984,3.1193 -3.9631,17.2928 -3.9367,19.5335 0.0223,1.9248 0.0014,3.3061 -0.1029,6.302 L -0.108,478.364 v 0.453 c 0.1658,5.5973 5.8757,31.7234 6.9653,39.5206 2.5566,18.2997 4.0187,20.1082 11.0803,37.9812 3.6267,9.1788 6.0152,15.3 9.4238,24.5826 5.2328,14.2503 19.0417,32.5094 26.9133,46.0227 7.8854,13.5374 7.4928,10.1475 16.9543,21.3577 5.7189,6.7759 12.8092,13.4254 18.6826,20.1656 6.499,7.4586 12.2346,12.7194 20.7459,18.3694 16.2859,10.811 29.5242,24.1704 46.6288,30.8747 11.594,4.5445 28.6699,14.3523 38.493,18.0564 9.7368,3.6717 30.2389,8.0705 41.027,11.4381 12.1555,3.7947 39.9994,6.4522 51.9625,6.4522 z m -175.1749,-64.2212 0.3753,-0.1876 z M 98.202,234.3796 l -0.3753,0.1876 z m 16.8934,-14.6362 -0.3753,0.1877 z m 66.4472,-38.2796 -0.3753,0.1877 z m 7.8837,-3.3775 -0.3756,0.1877 z m 7.8835,-3.3777 -0.3753,0.1876 z m 5.631,-2.2516 -0.3753,0.1877 z m 9.0099,-2.2518 -0.3753,0.1876 z m 27.0295,-6.7553 -0.3756,0.1877 z m 9.0096,-2.2515 -0.3753,0.1876 z m 40.5442,-72.0556 -0.3755,0.1877 z m 24.7768,2.2518 -0.3753,0.1877 z m 11.8256,66.989 -0.3756,0.1876 z m 51.243,10.6956 -0.3753,0.1877 z m 14.641,4.5037 -0.3753,0.1877 z m 3.3786,1.1257 -0.3753,0.1876 z m 21.9614,7.3182 -0.3753,0.1876 z m 7.3205,3.9404 -0.3753,0.1877 z m 5.068,2.8148 -0.3753,0.1877 z m 7.3205,3.9405 -0.3753,0.1876 z m 12.3886,6.7552 -0.3756,0.1877 z m 12.3885,6.7552 -0.3756,0.1877 z m 12.3882,9.0068 -0.3753,0.1877 z m 13.5148,11.2587 -0.3753,0.1876 z m 6.7575,5.6293 -0.3756,0.1877 z m 32.6605,33.7762 -0.3756,0.1874 z m 12.0129,363.8421 0.3753,-0.1876 z m -50.68,55.1673 0.3753,-0.1873 z m -7.8837,5.6293 0.3756,-0.1873 z m -235.897,32.1342 c 1.9355,-0.1611 9.2103,-2.492 12.6822,-3.4728 3.5901,-1.0136 7.5393,-1.97 12.3364,-3.329 8.7075,-2.467 16.5402,-4.2335 24.0265,-6.3292 3.6799,-1.0298 8.9812,-2.785 12.3565,-3.1833 3.6958,-0.4359 8.7797,3.5819 11.1228,4.8297 2.1218,1.1299 22.551,12.8996 22.923,13.4549 -3.9028,2.6127 -41.3105,3.581 -45.3873,3.5175 -7.8633,-0.1227 -45.6069,-2.6628 -50.0601,-5.4878 z m 83.1059,3.706 -0.3753,0.1876 z m -74.3307,-2.2516 -0.3756,0.1877 z m 15.7672,2.2516 -0.3756,0.1876 z M 423.9156,696.782 c -9.0329,4.3327 -18.7699,8.1638 -26.8971,11.9639 -4.2653,1.9944 -9.5417,3.9645 -13.3112,5.2982 -2.4962,0.883 -3.2545,1.5293 -0.6908,-2.9455 0.8535,-1.4896 2.8417,-4.8223 3.4588,-5.775 1.9882,-3.0688 12.3259,-22.6482 13.8473,-22.6499 0.0195,0 23.2245,13.6054 23.593,14.1083 z m -37.4,16.0906 -0.3753,0.1876 z m 5.631,-2.2519 -0.3753,0.1877 z m 7.8837,-3.3775 -0.3756,0.1877 z m 3.9419,-1.6888 -0.3756,0.1876 z m 3.9415,-1.6889 -0.3753,0.1876 z m -2.6277,-17.8263 0.3753,-0.1876 z m -74.8471,13.5573 39.8894,-9.9329 0.0916,0.3631 c 0.2112,0.4479 -13.4711,24.2799 -14.2988,24.289 -0.413,0.005 -22.9867,-12.8466 -25.6822,-14.7192 z m 2.018,0.8915 -0.3756,0.1877 z m 7.8834,4.5034 -0.3753,0.1877 z m 7.8837,4.5034 -0.3756,0.1877 z m -64.2418,-15.2461 c -2.6598,0.2213 -22.9819,5.9847 -27.3045,7.0925 -9.7064,2.4883 -17.7244,5.3785 -26.8571,7.6023 -17.2369,4.1969 -6.6886,6.8726 -20.6481,-9.4462 -2.7357,-3.1981 -5.7439,-8.5241 -8.6176,-11.9378 -3.0892,-3.6698 -5.372,-7.2077 -8.0416,-11.0682 -3.888,-5.6217 -6.3423,-5.3589 -0.641,-12.136 4.455,-5.2956 1.5926,-4.5229 11.3194,-5.2803 3.99,-0.3104 9.9895,-0.6764 14.3628,-1.3485 4.273,-0.6565 3.5601,-0.82 7.5379,1.3833 2.1538,1.1931 4.955,2.5606 7.0257,3.9541 8.7851,5.9125 17.6802,9.5465 26.9243,15.319 3.5461,2.2144 8.49,4.7239 13.0008,7.5356 4.5862,2.8584 12.185,5.4445 11.939,8.3302 z m -64.1478,17.4979 -0.3756,0.1877 z m 19.1458,-5.6293 -0.3756,0.1877 z m 37.1653,-10.1327 -0.3753,0.1877 z m -99.1548,-12.1501 16.4002,23.0295 c -1.6302,0.9105 -17.8237,-7.4483 -20.132,-8.593 -4.1224,-2.044 -6.6047,-1.7784 -2.8077,-6.3314 1.2943,-1.552 5.182,-7.1964 6.5395,-8.1051 z m -1.0791,15.5276 -0.3756,0.1876 z M 125.1845,666.665 c 2.2583,-0.9326 18.7653,-1.561 22.3186,-2.1796 2.8065,-0.4886 7.281,-0.6808 11.1693,-1.0763 2.9356,-0.2985 2.6901,-1.0924 4.3699,1.624 0.9417,1.5228 2.124,2.7663 3.2494,4.4467 -1.0582,0.7081 -6.3051,8.2228 -7.9464,10.0726 -3.3455,3.7715 -4.0073,9.1939 -10.0097,4.2188 -4.4385,-3.679 -20.6359,-13.3514 -23.1511,-17.1062 z m 4.5518,3.4245 -0.3753,0.1877 z m 15.7672,11.2587 -0.3753,0.1876 z m 3.3786,2.2518 -0.3753,0.1877 z m 103.2843,-28.7566 c 0.9621,-1.3127 59.9749,-5.9587 64.9638,-6.8272 4.8768,-0.849 10.0602,-0.8232 16.3565,-1.465 4.0218,-0.4099 4.0949,-1.4077 8.712,1.3212 6.8032,4.0213 37.2583,22.0284 38.9203,23.5775 l -6.0109,11.082 c -0.2976,-1.4799 -2.4942,-10.8005 -2.9988,-10.8005 -2.3604,0 -26.5952,6.7821 -31.6519,7.8432 -10.8508,2.277 -22.7016,6.8428 -30.9232,7.2368 -3.8962,0.1871 -54.6494,-31.7418 -57.3678,-31.968 z m 80.2905,26.5048 -0.3756,0.1876 z m 4.5048,-1.1259 -0.3753,0.1876 z m 4.5048,-1.126 -0.3753,0.1877 z m 4.5048,-1.1256 -0.3753,0.1877 z m 9.01,-2.2518 -0.3753,0.1876 z m 9.0099,-2.2519 -0.3756,0.1877 z m -71.3276,-22.8926 0.3753,-0.1873 z m -34.5376,7.1306 -0.3754,0.1876 z m 15.7671,9.0071 -0.3753,0.1876 z m 2.8157,1.6886 -0.3756,0.1876 z m 18.5825,10.6956 -0.3753,0.1877 z m 7.8837,4.5037 -0.3756,0.1877 z m 190.5664,-52.6813 c 0.1281,-0.6038 -0.5893,-7.967 -0.6885,-8.625 -1.7031,-11.3065 3.4186,-8.3296 -19.8828,-6.4766 -4.5516,0.362 -35.7681,3.5748 -36.303,3.28 -0.1871,-0.4229 14.5709,-25.6479 17.1323,-29.8684 4.6468,-7.6564 1.8187,-7.2847 11.9968,-9.9567 4.7489,-1.2464 12.1856,-3.3071 16.9387,-5.0431 10.1038,-3.6904 23.1111,-6.4199 34.1354,-9.9938 l 25.3397,-7.4342 c 4.6335,-1.256 3.8894,-2.2121 7.9243,-0.7523 -0.3617,4.3453 -13.1882,28.2756 -16.1164,33.6742 -2.9461,5.4312 -5.6818,9.6208 -9.5148,15.4837 -3.7168,5.6849 -7.8338,10.5905 -11.2626,15.7615 -3.3744,5.0887 -8.2911,10.777 -11.7462,14.2378 -4.7846,4.7926 -8.121,9.271 -12.9203,13.7758 -14.2807,13.4045 -21.9234,20.4636 -38.2757,31.5916 -4.9314,3.3559 -4.2352,4.6511 -8.8619,1.8714 -6.1095,-3.6706 -12.4608,-7.3735 -17.6105,-10.5443 -3.0447,-1.8745 -4.8813,-2.7037 -8.0073,-4.6967 -3.8399,-2.4483 -6.3516,-1.7977 -3.7069,-6.2286 3.1759,-5.3209 6.0279,-10.9409 9.2826,-15.9125 0.9386,-1.4335 2.8596,-7.2579 5.618,-7.6388 8.8478,-1.2218 18.4875,-1.3133 28.7501,-2.7783 8.9844,-1.2824 32.2529,-2.5565 37.779,-3.7267 z m 28.6719,-68.1616 0.3756,-0.1877 z m -38.2915,11.2586 0.3753,-0.1876 z m -334.7235,72.9468 c -2.4429,1.0086 -31.0606,2.9804 -37.5129,3.7939 -5.3367,0.6727 -5.9485,-0.9028 -8.9339,-4.1065 -3.7338,-4.0065 -8.8775,-9.0944 -12.4257,-13.4521 -2.1809,-2.6788 -5.7943,-5.2339 -1.8317,-5.5551 8.3523,-0.6763 26.7409,-4.7248 37.3702,-6.2759 5.7484,-0.8388 4.718,-1.7878 8.0876,3.1414 1.8691,2.7345 3.2051,4.6389 5.0921,7.2113 1.0763,1.4675 10.0301,13.7494 10.1543,15.243 z m -29.7981,2.8616 -0.3753,0.1876 z m 22.5247,-2.2518 -0.3756,0.1876 z m -4.8804,-17.8263 0.3753,-0.1876 z m 262.4731,10.3459 0.3127,0.0683 -0.2835,-0.0898 -7.4018,12.7819 -17.4849,-10.2855 z m -23.3382,2.977 -0.3753,0.1876 z m 5.6313,3.3774 -0.3756,0.1877 z m 5.6311,3.3778 -0.3753,0.1876 z M 217.535,634.8594 c 0.5901,-7.092 14.343,-19.2841 18.5828,-25.6135 -0.3096,-1.1586 -6.5563,-8.235 -8.1298,-10.1699 -2.9511,-3.6283 -3.1567,-2.9424 -9.9371,5.059 -2.4803,2.927 -6.0971,7.166 -8.481,10.3768 -2.6082,3.5127 -6.5599,6.9607 -8.9283,10.4961 l -21.63,-12.471 9.8064,-1.8737 -3.5694,-20.8548 -31.5734,5.1747 c -5.2206,1.0802 -6.1044,-0.4794 -10.7946,-3.1462 -7.1685,-4.076 -13.735,-8.4736 -20.838,-12.1003 l -20.2272,-11.5849 -8.3818,14.7949 29.454,17.0881 c -5.6016,0.9876 -37.8896,7.022 -40.7812,6.9596 l -11.8205,-0.6574 c -4.5663,-9.3795 -15.2606,-25.0372 -19.4565,-34.882 -1.3634,-3.1989 -3.5393,-9.5643 -5.1131,-12.5336 -3.261,-6.1541 -7.4914,-18.3325 -9.1482,-25.1054 -1.0551,-4.3117 -6.6019,-24.0403 -6.268,-25.6164 l 133.4407,-79.4021 24.8275,21.945 c -5.0936,3.4251 -9.0678,4.932 -13.7781,9.1193 -9.3124,8.2789 -8.4328,5.3711 -16.5725,16.0643 -1.271,1.6701 -3.8007,2.4 -5.6372,3.2561 -2.2649,1.0559 -4.2103,2.7043 -7.1507,3.6587 -9.957,3.2321 -29.8797,9.0439 -35.3404,15.8865 -2.5943,3.2507 -2.7578,2.6756 -0.6106,5.6211 1.8403,2.5251 21.8123,0.0708 22.1814,0.4734 0.2557,0.5779 -6.2283,6.0199 -8.1116,7.0903 -4.6928,2.6665 -6.4545,3.3859 -11.9798,5.1933 -14.5239,4.7517 -34.8457,8.24 -48.1708,16.0217 -3.4699,2.0265 -6.6577,4.0096 -8.8946,7.738 -0.8178,1.3641 -0.415,4.1094 -0.2446,5.4715 0.4759,3.8026 1.0636,2.5735 3.5748,4.994 4.5873,4.4218 4.8637,3.0853 9.8427,3.9481 4.2336,0.7339 7.6802,0.1531 11.3859,-0.5144 19.698,-3.5487 52.9112,-20.9515 68.9284,-20.9515 7.3911,0 15.7958,1.7547 24.4125,2.571 17.2625,1.6359 10.012,-0.8424 21.4753,10.0146 15.2422,14.436 26.1065,19.2846 45.2143,24.5534 3.8418,1.0593 7.4897,1.9508 12.3398,2.9877 2.5957,0.5547 2.9872,0.5457 5.9652,2.2113 3.6661,2.0506 3.0427,1.4088 3.0308,5.1817 -0.01,3.157 0.2844,10.8848 0.3204,13.1775 0.098,6.2316 2.4729,6.0973 7.1812,9.1099 l 39.2879,23.5063 c 1.4834,1.0622 2.5138,2.6518 4.6384,4.074 l -0.2347,0.3285 c -0.226,0.1321 -43.1516,3.8271 -46.9976,4.4051 -5.667,0.8515 -29.5861,3.0625 -35.8991,3.2848 -3.3299,0.1173 -1.4638,1.1063 -5.1551,-1.0985 -1.9604,-1.171 -4.0473,-2.3074 -6.0349,-3.2607 z m 29.3286,2.5801 -0.3753,0.1877 z m 11.2624,-1.1259 -0.3754,0.1877 z m 6.1942,-0.563 -0.3756,0.1877 z m 17.4563,-1.6888 -0.3753,0.1876 z m 23.6509,-2.2516 -0.3753,0.1877 z m -108.4929,-82.0006 0.3753,-0.1877 z m -59.69,-14.0735 0.3753,-0.1873 z m -69.4505,-5.254 -0.3754,0.1877 z m 36.0391,-11.2586 -0.3753,0.1876 z m 15.7671,-27.0207 -0.3753,0.1876 z m 7.8837,-3.3775 -0.3756,0.1876 z m 1.6892,-0.563 -0.3753,0.1877 z m 21.9614,-8.4441 -0.3753,0.1877 z m 4.5051,-2.2516 -0.3756,0.1877 z m -107.367,20.4531 0.3756,-0.1876 z m -16.8934,10.1328 0.3756,-0.1877 z m 35.2885,91.0074 -0.3753,0.1877 z m 48.4277,2.2518 -0.3753,0.1877 z m -5.631,-29.2725 -0.3756,0.1877 z m 21.3982,12.3846 -0.3754,0.1876 z m 7.8834,4.5034 -0.3753,0.1876 z m 7.8837,4.5034 -0.3753,0.1876 z m 21.3982,-1.1257 -0.3753,0.1877 z m 13.5147,-2.2518 -0.3753,0.1877 z m 2.2524,24.7691 -0.3753,0.1877 z m 10.6991,6.1923 -0.3753,0.1877 z m 26.4665,15.1991 -0.3756,0.1877 z m 61.0506,-59.4363 c 3.475,1.4349 23.637,-1.2841 27.9531,-2.8873 12.249,-4.5497 17.3588,-6.3831 28.4417,-13.4008 21.9639,-13.9079 29.296,-19.5633 48.4914,-38.4585 2.4449,-2.4069 14.9768,-19.4241 17.8806,-23.2563 4.5715,-6.0333 9.0916,-19.357 11.9895,-26.4986 8.8645,-21.8477 -0.2024,-22.5623 12.1155,-21.183 10.1379,1.1353 21.6513,1.3281 29.3825,2.9651 -1.3563,6.4014 -2.2359,15.3847 -2.7487,20.393 -0.8294,8.1045 -1.9828,12.4659 -2.6915,19.8394 -0.5275,5.4878 -1.5262,14.3192 -2.543,19.3717 -1.2605,6.2631 -1.4405,13.8257 -2.6781,20.2215 -1.2654,6.5392 -2.1728,15.5248 -2.7582,20.6637 -1.2917,11.3457 -1.7657,10.5125 -6.5072,18.9708 -6.1602,10.9903 -13.6485,23.6407 -19.7923,34.0076 -1.6149,2.7249 -3.4841,6.2413 -4.9992,8.7607 -2.812,4.6758 -1.6858,5.3465 -7.1495,5.7875 -7.2034,0.5814 -13.6551,1.4018 -20.2445,2.1019 -8.8197,0.9374 -20.8851,1.6855 -29.4508,2.8256 -4.1599,0.5539 -5.8167,1.2662 -9.4799,-1.1387 -13.1426,-8.6272 -24.6365,-13.9405 -36.0395,-21.3919 -6.2543,-4.087 -12.9529,-7.3911 -19.2075,-11.4781 -2.0163,-1.3178 -8.2245,-4.5368 -9.4374,-5.6931 -1.3997,-1.334 -1.3895,-8.725 -0.527,-10.5222 z m 69.5914,50.4295 -0.3755,0.1874 z m 47.3015,-4.5037 -0.3756,0.1877 z m -19.5214,-93.259 0.3756,-0.1876 z m -1.1262,1.1257 0.3753,-0.1877 z m -31.5343,24.7691 0.3756,-0.1877 z m -45.7996,42.5954 -0.3756,0.1876 z m 5.631,3.3774 -0.3753,0.1877 z m 5.631,3.3775 -0.3753,0.1877 z m 2.8157,1.6889 -0.3753,0.1877 z m 2.8156,1.6889 -0.3756,0.1876 z m 2.8154,1.6889 -0.3753,0.1876 z m 21.9614,12.9472 -0.3753,0.1877 z m 2.8157,1.6889 -0.3753,0.1877 z m 2.8156,1.6889 -0.3756,0.1876 z m -197.981,-8.7724 c 2.2768,-0.9402 7.8412,2.6992 11.1535,4.8935 4.1074,2.7209 7.4582,4.0308 11.6266,6.6727 1.6529,1.0474 16.3559,9.2821 16.6762,9.9026 0.1809,0.3503 -2.0279,4.1916 -3.7718,4.6664 -2.5863,0.7038 -9.8509,0.9796 -13.3279,1.2704 -3.668,0.307 -2.1147,1.177 -4.6658,-2.4125 -3.2182,-4.5278 -16.1839,-22.1465 -17.6908,-24.9931 z M 465.3043,561.678 c 1.3801,-5.9222 1.2359,-11.2958 2.2957,-16.9952 1.1512,-6.1883 1.2683,-11.6008 2.3573,-17.4756 l 4.7968,-36.1227 c 0.4085,-6.0905 1.5469,-11.2456 2.3295,-17.6315 0.7382,-6.0205 1.2305,-11.3391 2.4177,-17.7707 0.6678,-3.6198 0.3954,-5.2829 1.1251,-8.6896 0.5354,-2.5004 5.4053,-4.9912 7.2677,-6.5613 2.0047,-1.6898 15.067,-11.1929 15.4202,-12.1683 h 0.8447 c 0.2047,2.4573 5.2061,15.7623 6.3065,19.055 2.1354,6.3899 4.2146,12.32 6.6762,19.7504 2.3023,6.9486 5.1596,15.4576 7.7471,23.2226 4.8138,14.4451 4.6077,8.1839 -2.2482,18.9632 -6.0012,9.4357 -16.6028,22.2523 -23.6284,32.6696 -2.2048,3.2689 -3.5714,4.5748 -5.6512,7.8641 -2.6558,4.2001 -2.3167,4.29 -6.5667,5.4851 -3.0898,0.8688 -19.7294,5.5604 -21.49,6.4049 z m 5.678,-1.9234 -0.3753,0.1877 z m 19.8967,-121.4058 0.3756,-0.1877 z m 26.5133,107.8486 c 12.7618,-19.052 27.8356,-38.1867 41.2302,-57.3129 2.056,-2.9358 4.89,-6.9658 6.9381,-9.7993 4.3083,-5.9616 3.7632,-4.3614 3.0954,2.105 -1.6226,15.7101 -4.5298,31.7401 -8.5346,46.4207 -1.5638,5.7325 -0.2072,6.2005 -6.7609,8.0816 -6.705,1.9247 -32.4025,10.2084 -35.9682,10.5049 z m 11.0276,-3.3307 -0.3756,0.1876 z m 19.1458,-5.6293 -0.3753,0.1876 z m 14.2656,-52.7281 0.3753,-0.1877 z m -5.6313,7.8811 0.3756,-0.1876 z M 24.6691,460.0687 v -9.8513 c 0,-35.6199 11.0015,-81.4796 27.2046,-113.5037 1.3533,-2.6748 3.0286,-6.5997 5.3819,-10.438 1.1925,-1.9449 1.5001,-2.9138 2.9228,-5.2345 1.2818,-2.0911 1.1081,-3.8072 3.5113,-3.2216 2.7833,0.6781 12.3225,15.6424 14.504,18.9329 2.4545,3.7023 4.4785,6.7861 6.4083,9.3691 2.4936,3.3375 1.8779,8.0912 1.798,12.9007 l -0.0703,21.6729 c 0,12.6635 -0.574,42.4562 -0.6783,68.0349 -0.0125,2.9837 -2.7922,3.6555 -5.8142,5.4113 L 56.202,468.2299 c -10.7726,6.842 -20.0654,11.3788 -28.7176,17.1709 -2.4241,-3.6193 -1.2359,-1.4313 -1.756,-5.5718 -0.6622,-5.2722 -1.0593,-14.7725 -1.0593,-19.7603 z m 3.1439,24.8159 -0.3753,0.1876 z m 16.3304,-9.5698 -0.3756,0.1877 z m 5.631,-3.3775 -0.3753,0.1877 z m 5.631,-3.3777 -0.3753,0.1876 z m 5.6313,-3.3775 -0.3756,0.1876 z m 479.7247,18.8113 c -3.2097,-7.7673 -6.2632,-18.7884 -9.0944,-27.3025 -3.0268,-9.102 -6.0919,-17.9872 -9.1137,-27.3523 -4.4195,-13.6971 -5.3923,-10.8655 -1.4352,-14.2388 4.0142,-3.4214 8.6536,-6.6506 12.8427,-9.9603 2.5736,-2.0333 25.4287,-19.446 26.2281,-19.6594 3.763,6.8261 9.2259,44.0875 9.1545,53.562 -0.0604,8.0464 -0.6279,6.5823 -5.1211,12.657 -3.3534,4.5337 -22.1638,31.426 -23.4609,32.2943 z m 7.5552,-89.5533 0.3753,-0.1877 z m -19.1458,14.6364 0.3753,-0.1876 z M 424.7603,436.144 c 0.6404,-22.222 1.5358,-23.4139 -2.3182,-46.7847 -1.2719,-7.7125 -1.5094,-5.26 0.6228,-11.9058 1.0369,-3.2326 4.9275,-6.9925 8.0473,-9.8294 7.4166,-6.7442 12.2043,-12.1232 17.9328,-18.4003 6.3113,-6.9154 9.0828,-12.5745 19.8567,-14.2566 8.7795,-1.3705 16.7049,-3.5308 24.7629,-4.4926 l 18.1054,-2.194 c 2.5062,-0.3178 3.0025,-1.0783 2.3823,-3.5368 -0.5539,-2.1951 -9.3138,-5.6772 -11.0035,-6.23 -16.2933,-5.3288 -26.0229,-2.9429 -38.0407,-5.6415 -11.033,-2.4772 -11.5036,-10.4201 -18.1707,-17.3973 -3.9937,-4.1794 -4.9212,-3.8455 -10.076,-6.5705 -3.1462,-1.6633 -8.4832,-4.6159 -11.2623,-5.6993 -7.0671,-2.7547 -19.8862,-5.2648 -26.8124,-4.7072 -9.9884,0.8045 -13.3041,2.054 -22.0144,6.622 -9.3515,4.9048 -12.6748,8.5898 -19.6557,15.5684 -3.7987,3.7973 -5.3308,6.4259 -8.1113,10.1974 -1.2374,1.6781 -2.1649,3.1626 -3.8061,5.1744 -1.2901,1.5808 -24.9905,45.8401 -27.1488,46.6211 0.3767,-0.9111 -10.6855,-29.4497 -12.4705,-34.0512 -1.1801,-3.0418 -1.0522,-2.5767 1.0415,-4.3798 1.8232,-1.5698 3.1626,-3.0954 4.896,-4.6908 6.8178,-6.2747 11.9644,-11.5307 18.8532,-17.4645 2.6722,-2.3015 6.3193,-5.9315 9.6412,-8.6375 10.2801,-8.3741 19.1202,-16.8001 30.27,-25.4871 3.6326,-2.8301 6.5146,-5.9964 9.8632,-8.4348 3.1958,-2.3272 7.272,-5.9751 10.2158,-8.6629 5.0762,-4.6358 14.3693,-12.2596 20.1155,-16.4948 2.3643,-1.7428 19.1074,-15.0256 20.1965,-16.6519 6.3851,4.2744 14.4561,10.1035 20.0775,14.8312 6.3553,5.3444 15.0222,10.4499 20.9353,15.3654 8.1661,6.7893 12.8262,8.5102 18.824,16.6947 4.3929,5.9947 11.348,12.7536 15.9954,19.3544 4.0586,5.7642 10.5199,12.7287 15.7272,18.9853 5.8235,6.9968 7.884,12.6816 11.7255,20.647 2.4074,4.9915 20.6484,43.3293 21.4446,43.8622 -0.6627,0.9278 -38.4774,29.1498 -42.779,32.3915 l -10.2651,-30.1969 -15.912,5.199 c -0.2668,1.0658 7.0512,21.6354 8.2193,25.5362 3.4914,11.6614 4.9816,9.2678 0.5074,12.6742 -3.8656,2.943 -8.9702,7.1368 -13.0884,10.0163 -5.2705,3.6853 -13.5969,10.2549 -19.1971,14.5825 -3.4699,2.6816 -3.1521,1.9865 -7.1158,1.5596 -11.1333,-1.199 -19.8757,-2.1583 -31.0113,-3.0846 z m 11.3091,0.8915 -0.3753,0.1876 z m 54.0587,-20.2658 -0.3753,0.1877 z m 12.3885,-47.2864 -0.3753,0.1877 z m 15.7672,25.8951 -0.3753,0.1876 z m -36.4144,-139.4198 0.3753,-0.1877 z m -42.7967,-31.5241 0.3753,-0.1877 z m -38.2915,18.0139 0.3753,-0.1877 z m -13.5147,11.2586 0.3753,-0.1876 z m -29.2819,24.7689 0.3753,-0.1877 z m -14.641,12.3845 0.3753,-0.1876 z m -23.6508,21.3914 0.3755,-0.1876 z m 51.0556,-23.8306 -0.3753,0.1877 z m 27.0295,-10.133 -0.3756,0.1877 z m 1.1262,0 -0.3756,0.1877 z m 32.0973,7.3182 -0.3754,0.1877 z m 11.2623,5.6293 -0.3753,0.1877 z m 39.981,23.0803 -0.3753,0.1877 z m 10.1361,1.1259 -0.3756,0.1877 z m 15.7671,4.5034 -0.3756,0.1877 z m 3.3787,2.2519 -0.3756,0.1876 z m -31.9099,10.8833 0.3756,-0.1876 z m -11.2621,2.2516 0.3753,-0.1877 z M 104.9125,438.9588 c 1.1273,-13.5437 0.4218,-31.1312 0.4221,-36.9425 3e-4,-6.0835 0.282,-23.0571 0.2815,-36.4502 -6e-4,-15.6376 -1.0389,-11.5804 4.0237,-16.4619 3.6267,-3.4971 10.757,-9.0876 15.2799,-12.5824 8.3758,-6.4715 23.4363,-20.5044 30.6729,-25.3489 0.0859,3.852 2.8224,15.1583 3.6028,19.0095 1.4927,7.3672 2.2836,12.7902 3.7352,19.0763 2.1251,9.2041 3.869,20.1929 5.8538,29.7598 0.8244,3.973 -1.203,6.2022 -2.5835,9.1981 -3.1365,6.8071 -5.2803,11.9486 -8.6791,18.544 -1.4867,2.8854 -14.2778,9.3651 -17.9013,11.6813 -5.1106,3.2666 -11.4095,6.9744 -16.82,9.9561 -6.048,3.3333 -10.8722,7.1955 -17.888,10.5608 z m 37.2124,-22.1891 -0.3756,0.1877 z m 5.631,-3.3774 -0.3753,0.1876 z m -20.6476,-78.6229 0.3756,-0.1877 z m -6.7572,5.6293 0.3753,-0.1876 z m 83.9506,101.6561 c -0.392,-1.0829 -28.3547,-24.4219 -28.5177,-24.9733 -0.2049,-0.6936 3.9391,-8.2513 5.0049,-10.3416 10.0944,-19.7955 17.9563,-37.6135 26.8991,-56.7944 0.6485,-1.3909 1.955,-4.4597 2.6674,-5.8085 1.1058,-2.0928 0.9448,-3.9475 3.5223,-4.2542 8.0657,-0.9595 15.9035,-2.7921 24.6183,-3.8412 6.3508,-0.7645 44.3129,-6.2139 48.5833,-8.2622 1.8332,3.8194 13.2778,39.9793 16.4832,49.0918 1.6758,4.7645 2.0066,2.9841 -3.8996,6.1314 -5.2773,2.812 -13.5465,7.348 -19.6257,11.4814 -3.7012,2.5166 -5.955,3.5161 -9.3266,5.8763 -3.0767,2.154 -5.201,4.0439 -8.8611,6.622 -5.3909,3.797 -12.164,8.4688 -17.9521,12.1563 -3.003,1.9134 -38.7844,22.8487 -39.5957,22.9162 z m 30.1734,-17.4039 -0.3753,0.1877 z m 5.6313,-3.3778 -0.3756,0.1877 z m 12.3885,-7.8808 -0.3756,0.1876 z m 25.903,-18.0139 -0.3753,0.1876 z m 9.0099,-5.6294 -0.3755,0.1877 z m -10.5114,-59.4833 0.3753,-0.1877 z m -84.0915,101.1404 -0.3753,0.1877 z m 7.8835,6.755 -0.3753,0.1877 z m 18.0195,-4.5034 -0.3753,0.1877 z m -37.0542,-78.5021 c -0.8917,-8.8886 -4.862,-23.2725 -6.0551,-30.5243 -1.6449,-9.997 -4.5221,-20.1436 -6.0165,-30.7882 -1.4074,-10.0236 -4.2712,-19.1773 -5.7141,-29.3415 -1.4615,-10.2943 -4.1482,-22.1408 -6.042,-30.6674 -0.218,-0.9811 -1.1577,-5.2229 -1.2487,-6.609 -0.3027,-4.6077 -2.2379,-2.5138 2.2298,-6.0117 7.6399,-5.9814 33.9446,-18.0363 43.1302,-21.0787 10.1322,-3.3557 20.8633,-7.0943 29.9625,-9.3314 l 21.0353,-4.4643 c 1.357,-0.066 7.1572,-0.2035 7.678,-0.4187 z m -12.8749,-139.7282 0.3753,-0.1877 z m -28.6719,17.498 0.3285,0.2344 c -0.197,0.9638 7.9078,39.5014 8.8492,46.1563 0.4312,3.0475 1.1588,5.5536 1.6801,8.4106 0.5533,3.0325 -1.5885,2.9064 -4.3146,5.5075 -7.9013,7.5387 -46.237,37.3666 -48.4951,40.7375 -4.0918,-2.7391 -15.8176,-21.3514 -19.6027,-26.5147 -2.5101,-3.424 -2.6688,-2.4922 -3.5272,-7.4265 -0.4739,-2.7227 1.1767,-3.99 3.5295,-7.0444 3.5994,-4.6723 7.2221,-9.8529 10.8053,-13.6737 7.4228,-7.9149 15.1903,-17.2851 23.995,-24.9129 3.9674,-3.437 9.3243,-7.7488 12.5802,-10.5769 1.5718,-1.3652 13.9059,-10.5344 14.1718,-10.8972 z m -41.9049,100.5304 -0.3753,0.1877 z m 13.5148,-11.2586 -0.3756,0.1876 z m 18.7704,-82.0007 0.3754,-0.1876 z m -12.9517,10.6957 0.3756,-0.1876 z m -0.563,0.563 0.3753,-0.1877 z m 171.7963,-68.6308 h 15.4853 c 9.9136,0 7.9169,-1.2866 12.8818,14.6328 2.3601,7.5671 4.5706,15.408 7.0019,22.9118 5.3268,16.4396 9.0561,31.2126 14.2109,46.3938 1.8604,5.4791 0.9796,5.4179 -4.3611,9.3972 -3.2102,2.3916 -6.0421,5.0816 -9.5559,8.2003 -2.5112,2.2289 -7.2207,5.8439 -9.1735,7.6796 -2.2807,2.1439 -6.8935,6.0764 -9.6009,8.1511 -12.3267,9.4478 -8.3007,9.9876 -21.3608,11.3504 -14.3606,1.4987 -34.5515,6.2439 -48.4007,7.6683 -18.608,1.914 -16.0361,5.7561 -10.2084,-7.9341 2.524,-5.9293 7.1943,-14.7986 9.8841,-21.0371 3.0892,-7.1637 6.5798,-14.6647 10.2946,-22.2123 7.2678,-14.7653 13.4164,-28.5281 20.704,-44.1827 3.1172,-6.6955 7.0951,-15.3681 10.4315,-22.1267 l 7.6495,-16.2893 c 1.2569,-2.5268 0.7668,-2.6031 4.1177,-2.6031 z m -52.041,135.995 -0.3756,0.1877 z m 42.7963,-6.7552 -0.3753,0.1876 z m 74.6243,-52.8931 -22.7857,-73.6642 c 4.3231,-1.334 34.4492,5.8838 41.9434,8.3344 6.5424,2.1396 13.358,4.0907 19.5656,6.3584 2.05,0.7489 20.0418,8.4708 20.6263,8.5195 z m 6.4639,-5.6517 -0.3753,0.1876 z m 29.2819,-24.7692 -0.3753,0.1877 z m -88.1739,-80.8276 c -30.2525,4.1227 -33.467,-36.4638 -6.6226,-40.1616 12.1731,-1.6767 22.562,9.4822 22.5448,18.7164 -0.01,5.1324 -0.1041,7.6663 -4.148,14.0459 -1.6483,2.6005 -7.2575,6.7836 -11.7742,7.3993 z m 0.3285,-0.2347 -0.3756,0.1876 z m -18.0196,-4.5034 -0.3756,0.1876 z"
     style="fill:none;stroke:#000000;stroke-width:0.216;stroke-linecap:butt;stroke-linejoin:miter;stroke-dasharray:none"
     id="path2" />
</svg>
