<?xml version="1.0" encoding="UTF-8" standalone="no"?>
<!-- Created with Inkscape (http://www.inkscape.org/) -->

<svg
   width="75.302727mm"
   height="34.677734mm"
   viewBox="0 0 75.302727 34.677734"
   version="1.1"
   id="svg283"
   xmlns:inkscape="http://www.inkscape.org/namespaces/inkscape"
   xmlns:sodipodi="http://sodipodi.sourceforge.net/DTD/sodipodi-0.dtd"
   xmlns="http://www.w3.org/2000/svg"
   xmlns:svg="http://www.w3.org/2000/svg">
  <sodipodi:namedview
     id="namedview285"
     pagecolor="#ffffff"
     bordercolor="#000000"
     borderopacity="0.25"
     inkscape:showpageshadow="2"
     inkscape:pageopacity="0.0"
     inkscape:pagecheckerboard="0"
     inkscape:deskcolor="#d1d1d1"
     inkscape:document-units="mm"
     showgrid="false" />
  <defs
     id="defs280" />
  <g
     inkscape:label="Layer 1"
     inkscape:groupmode="layer"
     id="layer1"
     transform="translate(-19.793805,-20.910713)">
    <g
       aria-label="Hello, World!
This text spans
multiple lines"
       id="text341"
       style="font-size:10px;stroke-width:0.264583">
      <path
         d="m 20.804548,21.21833 h 0.986328 v 2.988282 h 3.583985 V 21.21833 h 0.986328 v 7.290039 H 25.374861 V 25.03669 h -3.583985 v 3.471679 h -0.986328 z"
         id="path511" />
      <path
         d="m 32.962751,25.549385 v 0.439453 h -4.130859 q 0.05859,0.927735 0.556641,1.416016 0.502929,0.483398 1.396484,0.483398 0.517578,0 1.000977,-0.126953 0.488281,-0.126953 0.966796,-0.380859 v 0.849609 q -0.483398,0.205078 -0.99121,0.3125 -0.507813,0.107422 -1.030274,0.107422 -1.308594,0 -2.075195,-0.761719 -0.761719,-0.761718 -0.761719,-2.060547 0,-1.342773 0.722656,-2.128906 0.727539,-0.791015 1.958008,-0.791015 1.103516,0 1.743164,0.71289 0.644531,0.708008 0.644531,1.928711 z m -0.898437,-0.263672 q -0.0098,-0.737304 -0.415039,-1.176758 -0.400391,-0.439453 -1.064453,-0.439453 -0.751953,0 -1.206055,0.424805 -0.449219,0.424805 -0.517578,1.196289 z"
         id="path513" />
      <path
         d="m 34.437361,20.910713 h 0.898437 v 7.597656 h -0.898437 z"
         id="path515" />
      <path
         d="m 37.215681,20.910713 h 0.898438 v 7.597656 h -0.898438 z"
         id="path517" />
      <path
         d="m 42.113142,23.669502 q -0.722656,0 -1.142578,0.566407 -0.419922,0.561523 -0.419922,1.542968 0,0.981446 0.415039,1.547852 0.419922,0.561523 1.147461,0.561523 0.717773,0 1.137695,-0.566406 0.419922,-0.566406 0.419922,-1.542969 0,-0.971679 -0.419922,-1.538086 -0.419922,-0.571289 -1.137695,-0.571289 z m 0,-0.761718 q 1.171875,0 1.84082,0.761718 0.668946,0.761719 0.668946,2.109375 0,1.342774 -0.668946,2.109375 -0.668945,0.761719 -1.84082,0.761719 -1.176758,0 -1.845703,-0.761719 -0.664063,-0.766601 -0.664063,-2.109375 0,-1.347656 0.664063,-2.109375 0.668945,-0.761718 1.845703,-0.761718 z"
         id="path519" />
      <path
         d="m 46.341658,27.268135 h 1.030273 v 0.839844 l -0.800781,1.5625 h -0.629883 l 0.400391,-1.5625 z"
         id="path521" />
      <path
         d="m 51.859236,21.21833 h 0.996094 l 1.533203,6.16211 1.52832,-6.16211 h 1.108398 l 1.533204,6.16211 1.52832,-6.16211 h 1.000976 l -1.831054,7.290039 h -1.240235 l -1.538086,-6.328125 -1.552734,6.328125 h -1.240234 z"
         id="path523" />
      <path
         d="m 63.890486,23.669502 q -0.722656,0 -1.142578,0.566407 -0.419922,0.561523 -0.419922,1.542968 0,0.981446 0.415039,1.547852 0.419922,0.561523 1.147461,0.561523 0.717773,0 1.137695,-0.566406 0.419922,-0.566406 0.419922,-1.542969 0,-0.971679 -0.419922,-1.538086 -0.419922,-0.571289 -1.137695,-0.571289 z m 0,-0.761718 q 1.171875,0 1.84082,0.761718 0.668945,0.761719 0.668945,2.109375 0,1.342774 -0.668945,2.109375 -0.668945,0.761719 -1.84082,0.761719 -1.176758,0 -1.845703,-0.761719 -0.664063,-0.766601 -0.664063,-2.109375 0,-1.347656 0.664063,-2.109375 0.668945,-0.761718 1.845703,-0.761718 z"
         id="path525" />
      <path
         d="m 71.058455,23.879463 q -0.151368,-0.08789 -0.332032,-0.126953 -0.175781,-0.04395 -0.390625,-0.04395 -0.761718,0 -1.171875,0.498047 -0.405273,0.493164 -0.405273,1.420898 v 2.880859 h -0.90332 v -5.46875 h 0.90332 v 0.84961 q 0.283203,-0.498047 0.737305,-0.737305 0.454101,-0.24414 1.103515,-0.24414 0.09277,0 0.205078,0.01465 0.112305,0.0098 0.249024,0.03418 z"
         id="path527" />
      <path
         d="m 72.000837,20.910713 h 0.898438 v 7.597656 h -0.898438 z"
         id="path529" />
      <path
         d="m 78.37779,23.869698 v -2.958985 h 0.898438 v 7.597656 H 78.37779 v -0.820312 q -0.283203,0.488281 -0.717773,0.727539 -0.429687,0.234375 -1.035156,0.234375 -0.991211,0 -1.616211,-0.791016 -0.620117,-0.791015 -0.620117,-2.080078 0,-1.289062 0.620117,-2.080078 0.625,-0.791015 1.616211,-0.791015 0.605469,0 1.035156,0.239257 0.43457,0.234375 0.717773,0.722657 z m -3.061523,1.909179 q 0,0.991211 0.405273,1.557617 0.410157,0.561524 1.123047,0.561524 0.712891,0 1.123047,-0.561524 0.410156,-0.566406 0.410156,-1.557617 0,-0.991211 -0.410156,-1.552734 -0.410156,-0.566406 -1.123047,-0.566406 -0.71289,0 -1.123047,0.566406 -0.405273,0.561523 -0.405273,1.552734 z"
         id="path531" />
      <path
         d="m 81.69322,27.268135 h 0.991211 v 1.240234 H 81.69322 Z m 0,-6.049805 h 0.991211 v 3.198243 l -0.09766,1.743164 H 81.795759 L 81.69322,24.416573 Z"
         id="path533" />
      <path
         d="m 19.793806,33.71833 h 6.166992 v 0.830079 h -2.58789 v 6.45996 h -0.991211 v -6.45996 h -2.587891 z"
         id="path535" />
      <path
         d="m 31.419783,37.707588 v 3.300781 h -0.898438 v -3.271484 q 0,-0.776367 -0.302734,-1.162109 -0.302735,-0.385742 -0.908203,-0.385742 -0.727539,0 -1.147461,0.463867 -0.419922,0.463867 -0.419922,1.264648 v 3.09082 h -0.90332 v -7.597656 h 0.90332 v 2.978516 q 0.322265,-0.493164 0.756836,-0.737305 0.439453,-0.24414 1.010742,-0.24414 0.942383,0 1.425781,0.585937 0.483399,0.581055 0.483399,1.713867 z"
         id="path537" />
      <path
         d="m 33.211775,35.539619 h 0.898437 v 5.46875 h -0.898437 z m 0,-2.128906 h 0.898437 v 1.137696 h -0.898437 z"
         id="path539" />
      <path
         d="m 39.476423,35.700752 v 0.84961 q -0.380859,-0.195313 -0.791015,-0.292969 -0.410157,-0.09766 -0.84961,-0.09766 -0.668945,0 -1.005859,0.205078 -0.332031,0.205078 -0.332031,0.615234 0,0.3125 0.239257,0.493164 0.239258,0.175781 0.961915,0.336914 l 0.307617,0.06836 q 0.957031,0.205078 1.357422,0.581054 0.405273,0.371094 0.405273,1.040039 0,0.761719 -0.605469,1.206055 -0.600586,0.444336 -1.655273,0.444336 -0.439453,0 -0.917969,-0.08789 -0.473633,-0.08301 -1.000976,-0.253906 V 39.88044 q 0.498046,0.258789 0.981445,0.390625 0.483398,0.126953 0.957031,0.126953 0.634766,0 0.976563,-0.214844 0.341796,-0.219726 0.341796,-0.615234 0,-0.366211 -0.249023,-0.561524 -0.244141,-0.195312 -1.079102,-0.375976 l -0.3125,-0.07324 q -0.83496,-0.175782 -1.206054,-0.53711 -0.371094,-0.366211 -0.371094,-1.000976 0,-0.771485 0.546875,-1.191407 0.546875,-0.419921 1.552734,-0.419921 0.498047,0 0.9375,0.07324 0.439454,0.07324 0.810547,0.219726 z"
         id="path541" />
      <path
         d="m 45.267439,33.986885 v 1.552734 h 1.850586 v 0.698243 h -1.850586 v 2.96875 q 0,0.668945 0.180664,0.859375 0.185547,0.190429 0.74707,0.190429 h 0.922852 v 0.751953 h -0.922852 q -1.040039,0 -1.435547,-0.385742 -0.395507,-0.390625 -0.395507,-1.416015 v -2.96875 h -0.65918 v -0.698243 h 0.65918 v -1.552734 z"
         id="path543" />
      <path
         d="m 52.9774,38.049385 v 0.439453 h -4.13086 q 0.05859,0.927735 0.556641,1.416016 0.50293,0.483398 1.396484,0.483398 0.517579,0 1.000977,-0.126953 0.488281,-0.126953 0.966797,-0.380859 v 0.849609 q -0.483399,0.205078 -0.991211,0.3125 -0.507813,0.107422 -1.030273,0.107422 -1.308594,0 -2.075196,-0.761719 -0.761719,-0.761718 -0.761719,-2.060547 0,-1.342773 0.722657,-2.128906 0.727539,-0.791015 1.958008,-0.791015 1.103515,0 1.743164,0.71289 0.644531,0.708008 0.644531,1.928711 z m -0.898438,-0.263672 q -0.0098,-0.737304 -0.415039,-1.176758 -0.40039,-0.439453 -1.064453,-0.439453 -0.751953,0 -1.206055,0.424805 -0.449218,0.424805 -0.517578,1.196289 z"
         id="path545" />
      <path
         d="m 58.822126,35.539619 -1.977539,2.661133 2.080078,2.807617 h -1.05957 l -1.591797,-2.148437 -1.591797,2.148437 h -1.05957 l 2.124024,-2.861328 -1.94336,-2.607422 h 1.05957 l 1.450196,1.948243 1.450195,-1.948243 z"
         id="path547" />
      <path
         d="m 61.082869,33.986885 v 1.552734 h 1.850586 v 0.698243 h -1.850586 v 2.96875 q 0,0.668945 0.180664,0.859375 0.185547,0.190429 0.74707,0.190429 h 0.922852 v 0.751953 h -0.922852 q -1.040039,0 -1.435547,-0.385742 -0.395508,-0.390625 -0.395508,-1.416015 v -2.96875 h -0.659179 v -0.698243 h 0.659179 v -1.552734 z"
         id="path549" />
      <path
         d="m 70.780134,35.700752 v 0.84961 q -0.380859,-0.195313 -0.791015,-0.292969 -0.410157,-0.09766 -0.84961,-0.09766 -0.668945,0 -1.005859,0.205078 -0.332031,0.205078 -0.332031,0.615234 0,0.3125 0.239257,0.493164 0.239258,0.175781 0.961914,0.336914 l 0.307618,0.06836 q 0.957031,0.205078 1.357422,0.581054 0.405273,0.371094 0.405273,1.040039 0,0.761719 -0.605469,1.206055 -0.600586,0.444336 -1.655273,0.444336 -0.439453,0 -0.917969,-0.08789 -0.473633,-0.08301 -1.000977,-0.253906 V 39.88044 q 0.498047,0.258789 0.981446,0.390625 0.483398,0.126953 0.957031,0.126953 0.634766,0 0.976563,-0.214844 0.341796,-0.219726 0.341796,-0.615234 0,-0.366211 -0.249023,-0.561524 -0.244141,-0.195312 -1.079102,-0.375976 l -0.3125,-0.07324 q -0.834961,-0.175782 -1.206054,-0.53711 -0.371094,-0.366211 -0.371094,-1.000976 0,-0.771485 0.546875,-1.191407 0.546875,-0.419921 1.552734,-0.419921 0.498047,0 0.9375,0.07324 0.439453,0.07324 0.810547,0.219726 z"
         id="path551" />
      <path
         d="m 73.372908,40.188057 v 2.900391 h -0.903321 v -7.548829 h 0.903321 v 0.830079 q 0.283203,-0.488282 0.71289,-0.722657 0.434571,-0.239257 1.035157,-0.239257 0.996093,0 1.61621,0.791015 0.625,0.791016 0.625,2.080078 0,1.289063 -0.625,2.080078 -0.620117,0.791016 -1.61621,0.791016 -0.600586,0 -1.035157,-0.234375 -0.429687,-0.239258 -0.71289,-0.727539 z m 3.05664,-1.90918 q 0,-0.991211 -0.410156,-1.552734 -0.405273,-0.566406 -1.118164,-0.566406 -0.712891,0 -1.123047,0.566406 -0.405273,0.561523 -0.405273,1.552734 0,0.991211 0.405273,1.557617 0.410156,0.561524 1.123047,0.561524 0.712891,0 1.118164,-0.561524 0.410156,-0.566406 0.410156,-1.557617 z"
         id="path553" />
      <path
         d="m 81.336775,38.259346 q -1.088867,0 -1.508789,0.249023 -0.419922,0.249024 -0.419922,0.84961 0,0.478515 0.3125,0.761719 0.317383,0.27832 0.859375,0.27832 0.74707,0 1.196289,-0.527344 0.454102,-0.532226 0.454102,-1.411133 v -0.200195 z m 1.791992,-0.371094 v 3.120117 H 82.23033 v -0.830078 q -0.307618,0.498047 -0.766602,0.737305 -0.458984,0.234375 -1.123047,0.234375 -0.839844,0 -1.337891,-0.46875 -0.493164,-0.473633 -0.493164,-1.264648 0,-0.922852 0.615235,-1.391602 0.620117,-0.46875 1.845703,-0.46875 h 1.259766 v -0.08789 q 0,-0.620117 -0.410157,-0.957031 -0.405273,-0.341797 -1.142578,-0.341797 -0.46875,0 -0.913086,0.112305 -0.444336,0.112305 -0.854492,0.336914 v -0.830078 q 0.493164,-0.19043 0.957031,-0.283203 0.463867,-0.09766 0.903321,-0.09766 1.186523,0 1.772461,0.615234 0.585937,0.615234 0.585937,1.865234 z"
         id="path555" />
      <path
         d="m 89.525251,37.707588 v 3.300781 h -0.898437 v -3.271484 q 0,-0.776367 -0.302734,-1.162109 -0.302735,-0.385742 -0.908204,-0.385742 -0.727539,0 -1.147461,0.463867 -0.419921,0.463867 -0.419921,1.264648 v 3.09082 h -0.903321 v -5.46875 h 0.903321 v 0.84961 q 0.322265,-0.493164 0.756836,-0.737305 0.439453,-0.24414 1.010742,-0.24414 0.942383,0 1.425781,0.585937 0.483398,0.581055 0.483398,1.713867 z"
         id="path557" />
      <path
         d="m 94.803572,35.700752 v 0.84961 q -0.38086,-0.195313 -0.791016,-0.292969 -0.410156,-0.09766 -0.849609,-0.09766 -0.668946,0 -1.00586,0.205078 -0.332031,0.205078 -0.332031,0.615234 0,0.3125 0.239258,0.493164 0.239258,0.175781 0.961914,0.336914 l 0.307617,0.06836 q 0.957031,0.205078 1.357422,0.581054 0.405273,0.371094 0.405273,1.040039 0,0.761719 -0.605468,1.206055 -0.600586,0.444336 -1.655274,0.444336 -0.439453,0 -0.917968,-0.08789 -0.473633,-0.08301 -1.000977,-0.253906 V 39.88044 q 0.498047,0.258789 0.981445,0.390625 0.483399,0.126953 0.957032,0.126953 0.634765,0 0.976562,-0.214844 0.341797,-0.219726 0.341797,-0.615234 0,-0.366211 -0.249024,-0.561524 -0.24414,-0.195312 -1.079101,-0.375976 l -0.3125,-0.07324 q -0.834961,-0.175782 -1.206055,-0.53711 -0.371094,-0.366211 -0.371094,-1.000976 0,-0.771485 0.546875,-1.191407 0.546875,-0.419921 1.552735,-0.419921 0.498047,0 0.9375,0.07324 0.439453,0.07324 0.810547,0.219726 z"
         id="path559" />
      <path
         d="m 25.023298,49.089424 q 0.336914,-0.605469 0.805664,-0.893555 0.46875,-0.288085 1.103516,-0.288085 0.854492,0 1.318359,0.600585 0.463868,0.595704 0.463868,1.699219 v 3.300781 h -0.903321 v -3.271484 q 0,-0.786133 -0.27832,-1.166992 -0.27832,-0.380859 -0.849609,-0.380859 -0.698243,0 -1.103516,0.463867 -0.405274,0.463867 -0.405274,1.264648 v 3.09082 h -0.90332 v -3.271484 q 0,-0.791016 -0.27832,-1.166992 -0.27832,-0.380859 -0.859375,-0.380859 -0.688477,0 -1.09375,0.46875 -0.405274,0.463867 -0.405274,1.259765 v 3.09082 h -0.90332 v -5.46875 h 0.90332 v 0.84961 q 0.307618,-0.50293 0.737305,-0.742188 0.429688,-0.239257 1.020508,-0.239257 0.595703,0 1.010742,0.302734 0.419922,0.302734 0.620117,0.878906 z"
         id="path561" />
      <path
         d="m 30.413923,51.350166 v -3.310547 h 0.898438 v 3.276368 q 0,0.776367 0.302734,1.166992 0.302735,0.385742 0.908203,0.385742 0.727539,0 1.147461,-0.463867 0.424805,-0.463867 0.424805,-1.264649 v -3.100586 h 0.898437 v 5.46875 h -0.898437 v -0.839843 q -0.327149,0.498047 -0.761719,0.742187 -0.429687,0.239258 -1.000976,0.239258 -0.942383,0 -1.430664,-0.585937 -0.488282,-0.585938 -0.488282,-1.713868 z m 2.260742,-3.442382 z"
         id="path563" />
      <path
         d="m 36.844587,45.910713 h 0.898438 v 7.597656 h -0.898438 z"
         id="path565" />
      <path
         d="m 40.51158,46.486885 v 1.552734 h 1.850585 v 0.698243 H 40.51158 v 2.96875 q 0,0.668945 0.180664,0.859375 0.185546,0.190429 0.74707,0.190429 h 0.922851 v 0.751953 h -0.922851 q -1.040039,0 -1.435547,-0.385742 -0.395508,-0.390625 -0.395508,-1.416015 v -2.96875 H 38.94908 v -0.698243 h 0.659179 v -1.552734 z"
         id="path567" />
      <path
         d="m 43.543806,48.039619 h 0.898438 v 5.46875 h -0.898438 z m 0,-2.128906 h 0.898438 v 1.137696 h -0.898438 z"
         id="path569" />
      <path
         d="m 47.191267,52.688057 v 2.900391 h -0.90332 v -7.548829 h 0.90332 v 0.830079 q 0.283203,-0.488282 0.712891,-0.722657 0.43457,-0.239257 1.035156,-0.239257 0.996094,0 1.616211,0.791015 0.625,0.791016 0.625,2.080078 0,1.289063 -0.625,2.080078 -0.620117,0.791016 -1.616211,0.791016 -0.600586,0 -1.035156,-0.234375 -0.429688,-0.239258 -0.712891,-0.727539 z m 3.056641,-1.90918 q 0,-0.991211 -0.410157,-1.552734 -0.405273,-0.566406 -1.118164,-0.566406 -0.71289,0 -1.123047,0.566406 -0.405273,0.561523 -0.405273,1.552734 0,0.991211 0.405273,1.557617 0.410157,0.561524 1.123047,0.561524 0.712891,0 1.118164,-0.561524 0.410157,-0.566406 0.410157,-1.557617 z"
         id="path571" />
      <path
         d="m 52.669783,45.910713 h 0.898437 v 7.597656 h -0.898437 z"
         id="path573" />
      <path
         d="m 60.125837,50.549385 v 0.439453 h -4.130859 q 0.05859,0.927735 0.556641,1.416016 0.502929,0.483398 1.396484,0.483398 0.517578,0 1.000977,-0.126953 0.488281,-0.126953 0.966796,-0.380859 v 0.849609 q -0.483398,0.205078 -0.991211,0.3125 -0.507812,0.107422 -1.030273,0.107422 -1.308594,0 -2.075195,-0.761719 -0.761719,-0.761718 -0.761719,-2.060547 0,-1.342773 0.722656,-2.128906 0.727539,-0.791015 1.958008,-0.791015 1.103516,0 1.743164,0.71289 0.644531,0.708008 0.644531,1.928711 z M 59.2274,50.285713 q -0.0098,-0.737304 -0.415039,-1.176758 -0.400391,-0.439453 -1.064453,-0.439453 -0.751953,0 -1.206055,0.424805 -0.449219,0.424805 -0.517578,1.196289 z"
         id="path575" />
      <path
         d="m 64.779158,45.910713 h 0.898437 v 7.597656 h -0.898437 z"
         id="path577" />
      <path
         d="m 67.557478,48.039619 h 0.898437 v 5.46875 h -0.898437 z m 0,-2.128906 h 0.898437 v 1.137696 h -0.898437 z"
         id="path579" />
      <path
         d="m 74.881697,50.207588 v 3.300781 h -0.898438 v -3.271484 q 0,-0.776367 -0.302734,-1.162109 -0.302735,-0.385742 -0.908203,-0.385742 -0.727539,0 -1.147461,0.463867 -0.419922,0.463867 -0.419922,1.264648 v 3.09082 h -0.90332 v -5.46875 h 0.90332 v 0.84961 q 0.322266,-0.493164 0.756836,-0.737305 0.439453,-0.24414 1.010742,-0.24414 0.942383,0 1.425781,0.585937 0.483399,0.581055 0.483399,1.713867 z"
         id="path581" />
      <path
         d="m 81.351423,50.549385 v 0.439453 h -4.130859 q 0.05859,0.927735 0.556641,1.416016 0.502929,0.483398 1.396484,0.483398 0.517578,0 1.000976,-0.126953 0.488282,-0.126953 0.966797,-0.380859 v 0.849609 q -0.483398,0.205078 -0.991211,0.3125 -0.507812,0.107422 -1.030273,0.107422 -1.308594,0 -2.075195,-0.761719 -0.761719,-0.761718 -0.761719,-2.060547 0,-1.342773 0.722656,-2.128906 0.727539,-0.791015 1.958008,-0.791015 1.103516,0 1.743164,0.71289 0.644531,0.708008 0.644531,1.928711 z m -0.898437,-0.263672 q -0.0098,-0.737304 -0.415039,-1.176758 -0.400391,-0.439453 -1.064453,-0.439453 -0.751954,0 -1.206055,0.424805 -0.449219,0.424805 -0.517578,1.196289 z"
         id="path583" />
      <path
         d="m 86.312361,48.200752 v 0.84961 q -0.38086,-0.195313 -0.791016,-0.292969 -0.410156,-0.09766 -0.849609,-0.09766 -0.668946,0 -1.00586,0.205078 -0.332031,0.205078 -0.332031,0.615234 0,0.3125 0.239258,0.493164 0.239258,0.175781 0.961914,0.336914 l 0.307617,0.06836 q 0.957031,0.205078 1.357422,0.581054 0.405274,0.371094 0.405274,1.040039 0,0.761719 -0.605469,1.206055 -0.600586,0.444336 -1.655274,0.444336 -0.439453,0 -0.917968,-0.08789 -0.473633,-0.08301 -1.000977,-0.253906 V 52.38044 q 0.498047,0.258789 0.981445,0.390625 0.483399,0.126953 0.957032,0.126953 0.634765,0 0.976562,-0.214844 0.341797,-0.219726 0.341797,-0.615234 0,-0.366211 -0.249023,-0.561524 -0.244141,-0.195312 -1.079102,-0.375976 l -0.3125,-0.07324 q -0.834961,-0.175782 -1.206055,-0.53711 -0.371093,-0.366211 -0.371093,-1.000976 0,-0.771485 0.546875,-1.191407 0.546875,-0.419921 1.552734,-0.419921 0.498047,0 0.9375,0.07324 0.439453,0.07324 0.810547,0.219726 z"
         id="path585" />
    </g>
  </g>
</svg>
